<svg width="122" height="38" viewBox="0 0 122 38" fill="none" xmlns="http://www.w3.org/2000/svg">
<path d="M14.5575 31H7.37565V7.72727H14.8756C17.1332 7.72727 19.065 8.19318 20.6711 9.125C22.2772 10.0492 23.5082 11.3788 24.3643 13.1136C25.2203 14.8409 25.6484 16.9091 25.6484 19.3182C25.6484 21.7424 25.2166 23.8295 24.3529 25.5795C23.4893 27.322 22.2317 28.6629 20.5802 29.6023C18.9287 30.5341 16.9211 31 14.5575 31ZM10.1938 28.5H14.3756C16.2999 28.5 17.8946 28.1288 19.1597 27.3864C20.4249 26.6439 21.3681 25.5871 21.9893 24.2159C22.6105 22.8447 22.9211 21.2121 22.9211 19.3182C22.9211 17.4394 22.6143 15.822 22.0006 14.4659C21.387 13.1023 20.4703 12.0568 19.2506 11.3295C18.0309 10.5947 16.512 10.2273 14.6938 10.2273H10.1938V28.5ZM37.3302 31.3636C35.6484 31.3636 34.1976 30.9924 32.9779 30.25C31.7658 29.5 30.8302 28.4545 30.1711 27.1136C29.5196 25.7652 29.1938 24.197 29.1938 22.4091C29.1938 20.6212 29.5196 19.0455 30.1711 17.6818C30.8302 16.3106 31.7469 15.2424 32.9211 14.4773C34.1029 13.7045 35.4817 13.3182 37.0575 13.3182C37.9666 13.3182 38.8643 13.4697 39.7506 13.7727C40.637 14.0758 41.4438 14.5682 42.1711 15.25C42.8984 15.9242 43.4779 16.8182 43.9097 17.9318C44.3416 19.0455 44.5575 20.4167 44.5575 22.0455V23.1818H31.1029V20.8636H41.8302C41.8302 19.8788 41.6332 19 41.2393 18.2273C40.8529 17.4545 40.2999 16.8447 39.5802 16.3977C38.8681 15.9508 38.0272 15.7273 37.0575 15.7273C35.9893 15.7273 35.065 15.9924 34.2847 16.5227C33.512 17.0455 32.9173 17.7273 32.5006 18.5682C32.084 19.4091 31.8756 20.3106 31.8756 21.2727V22.8182C31.8756 24.1364 32.1029 25.2538 32.5575 26.1705C33.0196 27.0795 33.6597 27.7727 34.4779 28.25C35.2961 28.7197 36.2469 28.9545 37.3302 28.9545C38.0347 28.9545 38.6711 28.8561 39.2393 28.6591C39.815 28.4545 40.3113 28.1515 40.7279 27.75C41.1446 27.3409 41.4666 26.8333 41.6938 26.2273L44.2847 26.9545C44.012 27.8333 43.5537 28.6061 42.9097 29.2727C42.2658 29.9318 41.4703 30.447 40.5234 30.8182C39.5764 31.1818 38.512 31.3636 37.3302 31.3636ZM62.3785 13.5455L55.9239 31H53.1967L46.7421 13.5455H49.6512L54.4694 27.4545H54.6512L59.4694 13.5455H62.3785ZM85.0092 15H82.191C82.0243 14.1894 81.7327 13.4773 81.316 12.8636C80.9069 12.25 80.4069 11.7348 79.816 11.3182C79.2327 10.8939 78.5849 10.5758 77.8728 10.3636C77.1607 10.1515 76.4183 10.0455 75.6455 10.0455C74.2364 10.0455 72.9599 10.4015 71.816 11.1136C70.6796 11.8258 69.7743 12.875 69.1001 14.2614C68.4334 15.6477 68.1001 17.3485 68.1001 19.3636C68.1001 21.3788 68.4334 23.0795 69.1001 24.4659C69.7743 25.8523 70.6796 26.9015 71.816 27.6136C72.9599 28.3258 74.2364 28.6818 75.6455 28.6818C76.4183 28.6818 77.1607 28.5758 77.8728 28.3636C78.5849 28.1515 79.2327 27.8371 79.816 27.4205C80.4069 26.9962 80.9069 26.4773 81.316 25.8636C81.7327 25.2424 82.0243 24.5303 82.191 23.7273H85.0092C84.797 24.9167 84.4107 25.9811 83.8501 26.9205C83.2895 27.8598 82.5925 28.6591 81.7592 29.3182C80.9258 29.9697 79.9902 30.4659 78.9524 30.8068C77.922 31.1477 76.8198 31.3182 75.6455 31.3182C73.6607 31.3182 71.8955 30.8333 70.3501 29.8636C68.8046 28.8939 67.5887 27.5152 66.7024 25.7273C65.816 23.9394 65.3728 21.8182 65.3728 19.3636C65.3728 16.9091 65.816 14.7879 66.7024 13C67.5887 11.2121 68.8046 9.83333 70.3501 8.86364C71.8955 7.89394 73.6607 7.40909 75.6455 7.40909C76.8198 7.40909 77.922 7.57954 78.9524 7.92045C79.9902 8.26136 80.9258 8.76136 81.7592 9.42045C82.5925 10.072 83.2895 10.8674 83.8501 11.8068C84.4107 12.7386 84.797 13.803 85.0092 15ZM94.3359 31.4091C93.2298 31.4091 92.226 31.2008 91.3245 30.7841C90.423 30.3598 89.7071 29.75 89.1768 28.9545C88.6465 28.1515 88.3813 27.1818 88.3813 26.0455C88.3813 25.0455 88.5783 24.2348 88.9722 23.6136C89.3662 22.9848 89.8927 22.4924 90.5518 22.1364C91.2109 21.7803 91.9381 21.5152 92.7336 21.3409C93.5366 21.1591 94.3434 21.0152 95.1541 20.9091C96.2147 20.7727 97.0745 20.6705 97.7336 20.6023C98.4003 20.5265 98.8851 20.4015 99.1881 20.2273C99.4988 20.053 99.6541 19.75 99.6541 19.3182V19.2273C99.6541 18.1061 99.3472 17.2348 98.7336 16.6136C98.1275 15.9924 97.2071 15.6818 95.9722 15.6818C94.6919 15.6818 93.6881 15.9621 92.9609 16.5227C92.2336 17.0833 91.7222 17.6818 91.4268 18.3182L88.8813 17.4091C89.3359 16.3485 89.9419 15.5227 90.6995 14.9318C91.4647 14.3333 92.298 13.9167 93.1995 13.6818C94.1086 13.4394 95.0025 13.3182 95.8813 13.3182C96.4419 13.3182 97.0859 13.3864 97.8131 13.5227C98.548 13.6515 99.2563 13.9205 99.9381 14.3295C100.628 14.7386 101.2 15.3561 101.654 16.1818C102.109 17.0076 102.336 18.1136 102.336 19.5V31H99.6541V28.6364H99.5177C99.3359 29.0152 99.0328 29.4205 98.6086 29.8523C98.1844 30.2841 97.62 30.6515 96.9154 30.9545C96.2109 31.2576 95.351 31.4091 94.3359 31.4091ZM94.745 29C95.8056 29 96.6995 28.7917 97.4268 28.375C98.1616 27.9583 98.7147 27.4205 99.0859 26.7614C99.4647 26.1023 99.6541 25.4091 99.6541 24.6818V22.2273C99.5404 22.3636 99.2904 22.4886 98.9041 22.6023C98.5253 22.7083 98.0859 22.803 97.5859 22.8864C97.0934 22.9621 96.6124 23.0303 96.1427 23.0909C95.6806 23.1439 95.3056 23.1894 95.0177 23.2273C94.3207 23.3182 93.6692 23.4659 93.0631 23.6705C92.4647 23.8674 91.9798 24.1667 91.6086 24.5682C91.245 24.9621 91.0631 25.5 91.0631 26.1818C91.0631 27.1136 91.4078 27.8182 92.0972 28.2955C92.7942 28.7652 93.6768 29 94.745 29ZM114.822 13.5455V15.8182H105.776V13.5455H114.822ZM108.413 9.36364H111.094V26C111.094 26.7576 111.204 27.3258 111.424 27.7045C111.651 28.0758 111.939 28.3258 112.288 28.4545C112.644 28.5758 113.019 28.6364 113.413 28.6364C113.708 28.6364 113.95 28.6212 114.14 28.5909C114.329 28.553 114.481 28.5227 114.594 28.5L115.14 30.9091C114.958 30.9773 114.704 31.0455 114.378 31.1136C114.053 31.1894 113.64 31.2273 113.14 31.2273C112.382 31.2273 111.64 31.0644 110.913 30.7386C110.193 30.4129 109.594 29.9167 109.117 29.25C108.647 28.5833 108.413 27.7424 108.413 26.7273V9.36364Z" fill="#FFA500"/>
</svg>
