<svg width="348" height="45" viewBox="0 0 348 45" fill="none" xmlns="http://www.w3.org/2000/svg">
<path d="M15.8182 7.72727H19.1818L27.0909 27.0455H27.3636L35.2727 7.72727H38.6364V31H36V13.3182H35.7727L28.5 31H25.9545L18.6818 13.3182H18.4545V31H15.8182V7.72727ZM51.2415 31.3636C49.5597 31.3636 48.1089 30.9924 46.8892 30.25C45.6771 29.5 44.7415 28.4545 44.0824 27.1136C43.4309 25.7652 43.1051 24.197 43.1051 22.4091C43.1051 20.6212 43.4309 19.0455 44.0824 17.6818C44.7415 16.3106 45.6581 15.2424 46.8324 14.4773C48.0142 13.7045 49.393 13.3182 50.9688 13.3182C51.8778 13.3182 52.7756 13.4697 53.6619 13.7727C54.5483 14.0758 55.3551 14.5682 56.0824 15.25C56.8097 15.9242 57.3892 16.8182 57.821 17.9318C58.2528 19.0455 58.4688 20.4167 58.4688 22.0455V23.1818H45.0142V20.8636H55.7415C55.7415 19.8788 55.5445 19 55.1506 18.2273C54.7642 17.4545 54.2112 16.8447 53.4915 16.3977C52.7794 15.9508 51.9384 15.7273 50.9688 15.7273C49.9006 15.7273 48.9763 15.9924 48.196 16.5227C47.4233 17.0455 46.8286 17.7273 46.4119 18.5682C45.9953 19.4091 45.7869 20.3106 45.7869 21.2727V22.8182C45.7869 24.1364 46.0142 25.2538 46.4688 26.1705C46.9309 27.0795 47.571 27.7727 48.3892 28.25C49.2074 28.7197 50.1581 28.9545 51.2415 28.9545C51.946 28.9545 52.5824 28.8561 53.1506 28.6591C53.7263 28.4545 54.2225 28.1515 54.6392 27.75C55.0559 27.3409 55.3778 26.8333 55.6051 26.2273L58.196 26.9545C57.9233 27.8333 57.465 28.6061 56.821 29.2727C56.1771 29.9318 55.3816 30.447 54.4347 30.8182C53.4877 31.1818 52.4233 31.3636 51.2415 31.3636ZM69.6392 31.3636C68.0634 31.3636 66.6809 30.9886 65.4915 30.2386C64.3097 29.4886 63.3854 28.4394 62.7188 27.0909C62.0597 25.7424 61.7301 24.1667 61.7301 22.3636C61.7301 20.5455 62.0597 18.9583 62.7188 17.6023C63.3854 16.2462 64.3097 15.1932 65.4915 14.4432C66.6809 13.6932 68.0634 13.3182 69.6392 13.3182C71.215 13.3182 72.5938 13.6932 73.7756 14.4432C74.965 15.1932 75.8892 16.2462 76.5483 17.6023C77.215 18.9583 77.5483 20.5455 77.5483 22.3636C77.5483 24.1667 77.215 25.7424 76.5483 27.0909C75.8892 28.4394 74.965 29.4886 73.7756 30.2386C72.5938 30.9886 71.215 31.3636 69.6392 31.3636ZM69.6392 28.9545C70.8362 28.9545 71.821 28.6477 72.5938 28.0341C73.3665 27.4205 73.9384 26.6136 74.3097 25.6136C74.6809 24.6136 74.8665 23.5303 74.8665 22.3636C74.8665 21.197 74.6809 20.1098 74.3097 19.1023C73.9384 18.0947 73.3665 17.2803 72.5938 16.6591C71.821 16.0379 70.8362 15.7273 69.6392 15.7273C68.4422 15.7273 67.4574 16.0379 66.6847 16.6591C65.9119 17.2803 65.34 18.0947 64.9688 19.1023C64.5975 20.1098 64.4119 21.197 64.4119 22.3636C64.4119 23.5303 64.5975 24.6136 64.9688 25.6136C65.34 26.6136 65.9119 27.4205 66.6847 28.0341C67.4574 28.6477 68.4422 28.9545 69.6392 28.9545ZM85.0028 31L79.6847 13.5455H82.5028L86.2756 26.9091H86.4574L90.1847 13.5455H93.0483L96.7301 26.8636H96.9119L100.685 13.5455H103.503L98.1847 31H95.5483L91.7301 17.5909H91.4574L87.6392 31H85.0028ZM113.773 31.3636C112.091 31.3636 110.64 30.9924 109.42 30.25C108.208 29.5 107.273 28.4545 106.614 27.1136C105.962 25.7652 105.636 24.197 105.636 22.4091C105.636 20.6212 105.962 19.0455 106.614 17.6818C107.273 16.3106 108.189 15.2424 109.364 14.4773C110.545 13.7045 111.924 13.3182 113.5 13.3182C114.409 13.3182 115.307 13.4697 116.193 13.7727C117.08 14.0758 117.886 14.5682 118.614 15.25C119.341 15.9242 119.92 16.8182 120.352 17.9318C120.784 19.0455 121 20.4167 121 22.0455V23.1818H107.545V20.8636H118.273C118.273 19.8788 118.076 19 117.682 18.2273C117.295 17.4545 116.742 16.8447 116.023 16.3977C115.311 15.9508 114.47 15.7273 113.5 15.7273C112.432 15.7273 111.508 15.9924 110.727 16.5227C109.955 17.0455 109.36 17.7273 108.943 18.5682C108.527 19.4091 108.318 20.3106 108.318 21.2727V22.8182C108.318 24.1364 108.545 25.2538 109 26.1705C109.462 27.0795 110.102 27.7727 110.92 28.25C111.739 28.7197 112.689 28.9545 113.773 28.9545C114.477 28.9545 115.114 28.8561 115.682 28.6591C116.258 28.4545 116.754 28.1515 117.17 27.75C117.587 27.3409 117.909 26.8333 118.136 26.2273L120.727 26.9545C120.455 27.8333 119.996 28.6061 119.352 29.2727C118.708 29.9318 117.913 30.447 116.966 30.8182C116.019 31.1818 114.955 31.3636 113.773 31.3636ZM125.08 31V13.5455H127.67V16.1818H127.852C128.17 15.3182 128.746 14.6174 129.58 14.0795C130.413 13.5417 131.352 13.2727 132.398 13.2727C132.595 13.2727 132.841 13.2765 133.136 13.2841C133.432 13.2917 133.655 13.303 133.807 13.3182V16.0455C133.716 16.0227 133.508 15.9886 133.182 15.9432C132.864 15.8902 132.527 15.8636 132.17 15.8636C131.322 15.8636 130.564 16.0417 129.898 16.3977C129.239 16.7462 128.716 17.2311 128.33 17.8523C127.951 18.4659 127.761 19.1667 127.761 19.9545V31H125.08ZM159.077 13.5455C158.94 12.3939 158.387 11.5 157.418 10.8636C156.448 10.2273 155.259 9.90909 153.849 9.90909C152.819 9.90909 151.918 10.0758 151.145 10.4091C150.38 10.7424 149.781 11.2008 149.349 11.7841C148.925 12.3674 148.713 13.0303 148.713 13.7727C148.713 14.3939 148.861 14.928 149.156 15.375C149.459 15.8144 149.846 16.1818 150.315 16.4773C150.785 16.7652 151.277 17.0038 151.793 17.1932C152.308 17.375 152.781 17.5227 153.213 17.6364L155.577 18.2727C156.183 18.4318 156.857 18.6515 157.599 18.9318C158.349 19.2121 159.065 19.5947 159.747 20.0795C160.437 20.5568 161.005 21.1705 161.452 21.9205C161.899 22.6705 162.122 23.5909 162.122 24.6818C162.122 25.9394 161.793 27.0758 161.134 28.0909C160.482 29.1061 159.527 29.9129 158.27 30.5114C157.02 31.1098 155.501 31.4091 153.713 31.4091C152.046 31.4091 150.603 31.1402 149.384 30.6023C148.171 30.0644 147.217 29.3144 146.52 28.3523C145.83 27.3902 145.44 26.2727 145.349 25H148.259C148.334 25.8788 148.63 26.6061 149.145 27.1818C149.668 27.75 150.327 28.1742 151.122 28.4545C151.925 28.7273 152.789 28.8636 153.713 28.8636C154.789 28.8636 155.755 28.6894 156.611 28.3409C157.467 27.9848 158.145 27.4924 158.645 26.8636C159.145 26.2273 159.395 25.4848 159.395 24.6364C159.395 23.8636 159.179 23.2348 158.747 22.75C158.315 22.2652 157.747 21.8712 157.043 21.5682C156.338 21.2652 155.577 21 154.759 20.7727L151.895 19.9545C150.077 19.4318 148.637 18.6856 147.577 17.7159C146.516 16.7462 145.986 15.4773 145.986 13.9091C145.986 12.6061 146.338 11.4697 147.043 10.5C147.755 9.52273 148.709 8.76515 149.906 8.22727C151.111 7.68182 152.455 7.40909 153.94 7.40909C155.44 7.40909 156.774 7.67803 157.94 8.21591C159.107 8.74621 160.031 9.47348 160.713 10.3977C161.402 11.322 161.766 12.3712 161.804 13.5455H159.077ZM180.665 13.5455L174.21 31H171.483L165.028 13.5455H167.938L172.756 27.4545H172.938L177.756 13.5455H180.665ZM190.898 31.3636C189.216 31.3636 187.765 30.9924 186.545 30.25C185.333 29.5 184.398 28.4545 183.739 27.1136C183.087 25.7652 182.761 24.197 182.761 22.4091C182.761 20.6212 183.087 19.0455 183.739 17.6818C184.398 16.3106 185.314 15.2424 186.489 14.4773C187.67 13.7045 189.049 13.3182 190.625 13.3182C191.534 13.3182 192.432 13.4697 193.318 13.7727C194.205 14.0758 195.011 14.5682 195.739 15.25C196.466 15.9242 197.045 16.8182 197.477 17.9318C197.909 19.0455 198.125 20.4167 198.125 22.0455V23.1818H184.67V20.8636H195.398C195.398 19.8788 195.201 19 194.807 18.2273C194.42 17.4545 193.867 16.8447 193.148 16.3977C192.436 15.9508 191.595 15.7273 190.625 15.7273C189.557 15.7273 188.633 15.9924 187.852 16.5227C187.08 17.0455 186.485 17.7273 186.068 18.5682C185.652 19.4091 185.443 20.3106 185.443 21.2727V22.8182C185.443 24.1364 185.67 25.2538 186.125 26.1705C186.587 27.0795 187.227 27.7727 188.045 28.25C188.864 28.7197 189.814 28.9545 190.898 28.9545C191.602 28.9545 192.239 28.8561 192.807 28.6591C193.383 28.4545 193.879 28.1515 194.295 27.75C194.712 27.3409 195.034 26.8333 195.261 26.2273L197.852 26.9545C197.58 27.8333 197.121 28.6061 196.477 29.2727C195.833 29.9318 195.038 30.447 194.091 30.8182C193.144 31.1818 192.08 31.3636 190.898 31.3636ZM204.886 7.72727V31H202.205V7.72727H204.886ZM217.389 13.5455V15.8182H208.344V13.5455H217.389ZM210.98 9.36364H213.662V26C213.662 26.7576 213.772 27.3258 213.991 27.7045C214.219 28.0758 214.507 28.3258 214.855 28.4545C215.211 28.5758 215.586 28.6364 215.98 28.6364C216.276 28.6364 216.518 28.6212 216.707 28.5909C216.897 28.553 217.048 28.5227 217.162 28.5L217.707 30.9091C217.526 30.9773 217.272 31.0455 216.946 31.1136C216.62 31.1894 216.207 31.2273 215.707 31.2273C214.95 31.2273 214.207 31.0644 213.48 30.7386C212.76 30.4129 212.162 29.9167 211.685 29.25C211.215 28.5833 210.98 27.7424 210.98 26.7273V9.36364ZM228.554 31.3636C226.872 31.3636 225.421 30.9924 224.202 30.25C222.99 29.5 222.054 28.4545 221.395 27.1136C220.743 25.7652 220.418 24.197 220.418 22.4091C220.418 20.6212 220.743 19.0455 221.395 17.6818C222.054 16.3106 222.971 15.2424 224.145 14.4773C225.327 13.7045 226.705 13.3182 228.281 13.3182C229.19 13.3182 230.088 13.4697 230.974 13.7727C231.861 14.0758 232.668 14.5682 233.395 15.25C234.122 15.9242 234.702 16.8182 235.134 17.9318C235.565 19.0455 235.781 20.4167 235.781 22.0455V23.1818H222.327V20.8636H233.054C233.054 19.8788 232.857 19 232.463 18.2273C232.077 17.4545 231.524 16.8447 230.804 16.3977C230.092 15.9508 229.251 15.7273 228.281 15.7273C227.213 15.7273 226.289 15.9924 225.509 16.5227C224.736 17.0455 224.141 17.7273 223.724 18.5682C223.308 19.4091 223.099 20.3106 223.099 21.2727V22.8182C223.099 24.1364 223.327 25.2538 223.781 26.1705C224.243 27.0795 224.884 27.7727 225.702 28.25C226.52 28.7197 227.471 28.9545 228.554 28.9545C229.259 28.9545 229.895 28.8561 230.463 28.6591C231.039 28.4545 231.535 28.1515 231.952 27.75C232.368 27.3409 232.69 26.8333 232.918 26.2273L235.509 26.9545C235.236 27.8333 234.777 28.6061 234.134 29.2727C233.49 29.9318 232.694 30.447 231.747 30.8182C230.8 31.1818 229.736 31.3636 228.554 31.3636ZM258.134 7.72727H260.952V24.3636C260.952 25.8485 260.679 27.1098 260.134 28.1477C259.588 29.1856 258.819 29.9735 257.827 30.5114C256.834 31.0492 255.664 31.3182 254.315 31.3182C253.043 31.3182 251.91 31.0871 250.918 30.625C249.925 30.1553 249.145 29.4886 248.577 28.625C248.009 27.7614 247.724 26.7348 247.724 25.5455H250.497C250.497 26.2045 250.66 26.7803 250.986 27.2727C251.319 27.7576 251.774 28.1364 252.349 28.4091C252.925 28.6818 253.58 28.8182 254.315 28.8182C255.126 28.8182 255.815 28.6477 256.384 28.3068C256.952 27.9659 257.384 27.4659 257.679 26.8068C257.982 26.1402 258.134 25.3258 258.134 24.3636V7.72727ZM273.781 31H266.599V7.72727H274.099C276.357 7.72727 278.289 8.19318 279.895 9.125C281.501 10.0492 282.732 11.3788 283.588 13.1136C284.444 14.8409 284.872 16.9091 284.872 19.3182C284.872 21.7424 284.44 23.8295 283.577 25.5795C282.713 27.322 281.455 28.6629 279.804 29.6023C278.152 30.5341 276.145 31 273.781 31ZM269.418 28.5H273.599C275.524 28.5 277.118 28.1288 278.384 27.3864C279.649 26.6439 280.592 25.5871 281.213 24.2159C281.834 22.8447 282.145 21.2121 282.145 19.3182C282.145 17.4394 281.838 15.822 281.224 14.4659C280.611 13.1023 279.694 12.0568 278.474 11.3295C277.255 10.5947 275.736 10.2273 273.918 10.2273H269.418V28.5ZM296.554 31.3636C294.872 31.3636 293.421 30.9924 292.202 30.25C290.99 29.5 290.054 28.4545 289.395 27.1136C288.743 25.7652 288.418 24.197 288.418 22.4091C288.418 20.6212 288.743 19.0455 289.395 17.6818C290.054 16.3106 290.971 15.2424 292.145 14.4773C293.327 13.7045 294.705 13.3182 296.281 13.3182C297.19 13.3182 298.088 13.4697 298.974 13.7727C299.861 14.0758 300.668 14.5682 301.395 15.25C302.122 15.9242 302.702 16.8182 303.134 17.9318C303.565 19.0455 303.781 20.4167 303.781 22.0455V23.1818H290.327V20.8636H301.054C301.054 19.8788 300.857 19 300.463 18.2273C300.077 17.4545 299.524 16.8447 298.804 16.3977C298.092 15.9508 297.251 15.7273 296.281 15.7273C295.213 15.7273 294.289 15.9924 293.509 16.5227C292.736 17.0455 292.141 17.7273 291.724 18.5682C291.308 19.4091 291.099 20.3106 291.099 21.2727V22.8182C291.099 24.1364 291.327 25.2538 291.781 26.1705C292.243 27.0795 292.884 27.7727 293.702 28.25C294.52 28.7197 295.471 28.9545 296.554 28.9545C297.259 28.9545 297.895 28.8561 298.463 28.6591C299.039 28.4545 299.535 28.1515 299.952 27.75C300.368 27.3409 300.69 26.8333 300.918 26.2273L303.509 26.9545C303.236 27.8333 302.777 28.6061 302.134 29.2727C301.49 29.9318 300.694 30.447 299.747 30.8182C298.8 31.1818 297.736 31.3636 296.554 31.3636ZM321.602 13.5455L315.148 31H312.42L305.966 13.5455H308.875L313.693 27.4545H313.875L318.693 13.5455H321.602Z" fill="black"/>
</svg>
